<svg width="16" height="16" viewBox="0 0 16 16" fill="none" xmlns="http://www.w3.org/2000/svg">
<path d="M15.1111 4.59558C15.1125 4.42076 15.0649 4.24905 14.9738 4.09983C14.8827 3.95062 14.7517 3.82984 14.5956 3.75113C14.4476 3.67167 14.2802 3.63576 14.1126 3.64756C13.9451 3.65936 13.7843 3.71838 13.6489 3.8178L11.5556 5.15558V3.55558C11.5556 3.31983 11.4619 3.09374 11.2952 2.92704C11.1285 2.76034 10.9024 2.66669 10.6667 2.66669H2.66669C2.1952 2.66669 1.74301 2.85399 1.40962 3.18739C1.07622 3.52078 0.888916 3.97297 0.888916 4.44446V11.5556C0.888916 12.0271 1.07622 12.4793 1.40962 12.8127C1.74301 13.1461 2.1952 13.3334 2.66669 13.3334H10.6667C10.9024 13.3334 11.1285 13.2397 11.2952 13.073C11.4619 12.9063 11.5556 12.6802 11.5556 12.4445V10.8445L13.6178 12.1778C13.7558 12.2834 13.9208 12.3478 14.0938 12.3636C14.2669 12.3793 14.4408 12.3457 14.5956 12.2667C14.7544 12.1867 14.8873 12.0631 14.9786 11.9104C15.0698 11.7578 15.1158 11.5823 15.1111 11.4045V4.59558ZM14.1911 11.4534C14.1645 11.4534 14.1422 11.4534 14.1067 11.4267L10.6667 9.23113V12.4445H2.66669C2.43095 12.4445 2.20485 12.3508 2.03815 12.1841C1.87146 12.0174 1.7778 11.7913 1.7778 11.5556V4.44446C1.7778 4.20872 1.87146 3.98262 2.03815 3.81593C2.20485 3.64923 2.43095 3.55558 2.66669 3.55558H10.6667V6.76891L14.1334 4.54669C14.1417 4.54055 14.1519 4.53724 14.1622 4.53724C14.1726 4.53724 14.1828 4.54055 14.1911 4.54669C14.2009 4.55045 14.2091 4.55723 14.2147 4.56603C14.2203 4.57482 14.223 4.58517 14.2222 4.59558V11.4045C14.223 11.4149 14.2203 11.4252 14.2147 11.434C14.2091 11.4428 14.2009 11.4496 14.1911 11.4534Z" fill="#F6BF41"/>
</svg>
